<!-- Generator: Adobe Illustrator 18.0.0, SVG Export Plug-In  -->
<svg version="1.1"
	 x="0px" y="0px" width="300px" height="267.5px" viewBox="0 0 300 267.5" style="enable-background:new 0 0 300 267.5;"
	 xml:space="preserve">
<defs>
</defs>
<g>
	<g>
		<path style="fill:#E30067;" d="M150,59.8c-49.4,0-89.4,41.1-89.4,90.1h178.8C239.4,100.9,199.4,59.8,150,59.8z"/>
		<path style="fill:#E30067;" d="M58,147c0,1.6-1.3,2.9-2.9,2.9H2.9c-1.6,0-2.9-1.3-2.9-2.9v-0.2c0-1.6,1.3-2.9,2.9-2.9h52.2
			c1.6,0,2.9,1.3,2.9,2.9V147z"/>
		<path style="fill:#E30067;" d="M63,108.4L16.2,85.7c-1.4-0.7-2-2.4-1.3-3.9l0,0c0.7-1.4,2.4-2.1,3.9-1.4l46.8,22.7
			c1.4,0.7,2,2.4,1.3,3.9l0,0C66.1,108.5,64.4,109.1,63,108.4z"/>
		<path style="fill:#E30067;" d="M88.4,74.2L56,33.3c-1-1.2-0.8-3.1,0.5-4.1l0,0c1.2-1,3.1-0.8,4.1,0.5l32.4,40.9
			c1,1.2,0.8,3.1-0.5,4.1l0,0C91.2,75.7,89.4,75.5,88.4,74.2z"/>
		<path style="fill:#E30067;" d="M126,54.5l-11.6-51c-0.4-1.6,0.6-3.1,2.2-3.5v0c1.5-0.4,3.1,0.6,3.5,2.2l11.6,51
			c0.4,1.6-0.6,3.1-2.2,3.5h0C127.9,57.1,126.4,56.1,126,54.5z"/>
		<path style="fill:#E30067;" d="M168.4,53.2l11.6-51c0.4-1.6,1.9-2.5,3.5-2.2l0,0c1.5,0.4,2.5,1.9,2.2,3.5l-11.6,51
			c-0.4,1.6-1.9,2.5-3.5,2.2l0,0C169,56.4,168,54.8,168.4,53.2z"/>
		<path style="fill:#E30067;" d="M207.1,70.6l32.4-40.9c1-1.2,2.8-1.5,4.1-0.5v0c1.2,1,1.4,2.8,0.5,4.1l-32.4,40.9
			c-1,1.2-2.8,1.5-4.1,0.5l0,0C206.3,73.7,206.1,71.8,207.1,70.6z"/>
		<path style="fill:#E30067;" d="M234.5,103.2l46.8-22.7c1.4-0.7,3.2-0.1,3.9,1.4v0c0.7,1.4,0.1,3.2-1.3,3.9L237,108.4
			c-1.4,0.7-3.2,0.1-3.9-1.4l0,0C232.5,105.6,233.1,103.8,234.5,103.2z"/>
		<path style="fill:#E30067;" d="M300,147c0,1.6-1.3,2.9-2.9,2.9h-52.2c-1.6,0-2.9-1.3-2.9-2.9v-0.2c0-1.6,1.3-2.9,2.9-2.9h52.2
			c1.6,0,2.9,1.3,2.9,2.9V147z"/>
		<path style="fill:#E30067;" d="M56.6,128.9l-5.6-1.3c-1.5-0.4-2.5-1.9-2.2-3.5h0c0.4-1.6,1.9-2.5,3.5-2.2l5.6,1.3
			c1.5,0.4,2.5,1.9,2.2,3.5v0C59.7,128.2,58.1,129.2,56.6,128.9z"/>
		<path style="fill:#E30067;" d="M73.8,89.9l-4.5-3.6c-1.2-1-1.4-2.8-0.5-4.1h0c1-1.2,2.8-1.5,4.1-0.5l4.5,3.6
			c1.2,1,1.4,2.8,0.5,4.1l0,0C76.8,90.7,75,90.9,73.8,89.9z"/>
		<path style="fill:#E30067;" d="M106.1,62.2l-2.5-5.2c-0.7-1.4-0.1-3.2,1.3-3.9h0c1.4-0.7,3.2-0.1,3.9,1.4l2.5,5.2
			c0.7,1.4,0.1,3.2-1.3,3.9l0,0C108.5,64.3,106.8,63.7,106.1,62.2z"/>
		<path style="fill:#E30067;" d="M153,51c0,1.6-1.3,2.9-2.9,2.9h-0.2c-1.6,0-2.9-1.3-2.9-2.9v-6.2c0-1.6,1.3-2.9,2.9-2.9h0.2
			c1.6,0,2.9,1.3,2.9,2.9V51z"/>
		<path style="fill:#E30067;" d="M188.7,59.7l2.5-5.2c0.7-1.4,2.4-2.1,3.9-1.4l0,0c1.4,0.7,2,2.4,1.3,3.9l-2.5,5.2
			c-0.7,1.4-2.4,2.1-3.9,1.4h0C188.6,62.9,188,61.2,188.7,59.7z"/>
		<path style="fill:#E30067;" d="M222.6,85.3l4.5-3.6c1.2-1,3.1-0.8,4.1,0.5l0,0c1,1.2,0.8,3.1-0.5,4.1l-4.5,3.6
			c-1.2,1-3.1,0.8-4.1-0.5v0C221.2,88.2,221.4,86.3,222.6,85.3z"/>
		<path style="fill:#E30067;" d="M242.2,123.2l5.6-1.3c1.5-0.4,3.1,0.6,3.5,2.2l0,0c0.4,1.6-0.6,3.1-2.2,3.5l-5.6,1.3
			c-1.5,0.4-3.1-0.6-3.5-2.2v0C239.6,125.1,240.6,123.6,242.2,123.2z"/>
	</g>
	<g>
		<g>
			<path style="fill:#FF2E8A;" d="M11.2,204.7l-5,6.5v7.4H4.6v-28.2h1.6v18.1l13.9-18.1h2l-9.8,12.8l10.5,15.4h-2L11.2,204.7z"/>
			<path style="fill:#FF2E8A;" d="M24,204.5c0-8.2,4.9-14.3,11.6-14.3c6.6,0,11.6,6.1,11.6,14.3c0,8.2-5,14.3-11.6,14.3
				C28.9,218.8,24,212.7,24,204.5z M45.5,204.5c0-7.1-4.3-12.4-9.9-12.4c-5.7,0-10,5.3-10,12.4c0,7.1,4.3,12.4,10,12.4
				C41.3,216.9,45.5,211.6,45.5,204.5z"/>
			<path style="fill:#FF2E8A;" d="M71,190.4v28.2h-1.6v-13.4H54.4v13.4h-1.6v-28.2h1.6v13h14.9v-13H71z"/>
			<path style="fill:#FF2E8A;" d="M82.6,192.3v24.5h4.7v1.9h-11v-1.9H81v-24.5h-4.7v-1.9h11v1.9H82.6z"/>
			<path style="fill:#FF2E8A;" d="M124,200.9v17.7h-1.6V201c0-6-2.5-8.9-6.6-8.9c-4.1,0-6.7,2.9-6.7,9.6v16.9h-1.6V201
				c0-6-2.5-8.9-6.5-8.9c-4.1,0-6.7,2.9-6.7,9.6v16.9h-1.6v-28.2h1.6v5.2c1.2-3.6,3.7-5.4,7.1-5.4c3.7,0,6.3,2.1,7.3,6
				c1.2-4,3.9-6,7.4-6C120.9,190.2,124,193.8,124,200.9z"/>
			<path style="fill:#FF2E8A;" d="M149.5,202.5v16.1h-1.6v-8.7H133v8.7h-1.6v-16.1c0-8.1,3.6-12.2,9.1-12.2
				C146,190.2,149.5,194.3,149.5,202.5z M147.9,208.1v-5.8c0-6.8-2.8-10.1-7.4-10.1s-7.4,3.3-7.4,10.1v5.8H147.9z"/>
			<path style="fill:#FF2E8A;" d="M180.6,215.2c-1.8,2.3-4.9,3.6-8.6,3.6c-5.8,0-8.8-3.3-8.8-7.7c0-3.7,1.9-6,4.7-6.8
				c-2.4-0.9-3.8-3.3-3.8-6.4c0-4.1,2.8-7.6,8.3-7.6c2.7,0,5.3,0.8,7.1,2.3l-0.5,1.7c-1.9-1.4-4.1-2.2-6.5-2.2
				c-4.5,0-6.7,2.5-6.7,5.9c0,3.5,2,5.5,5.5,5.5h5.4v1.9h-5.5c-3.8,0-6.4,1.8-6.4,5.7c0,3.6,2.3,6,7.2,6c3.3,0,6.1-1.2,7.8-3.3
				L180.6,215.2z"/>
			<path style="fill:#FF2E8A;" d="M203.1,201.7v16.9h-1.6v-16.8c0-6.4-2.7-9.7-7.2-9.7c-4.6,0-7.4,3.3-7.4,10.4v16.1h-1.6v-28.2h1.6
				v5.4c1.4-3.8,4.1-5.6,7.7-5.6C199.8,190.2,203.1,194.3,203.1,201.7z"/>
			<path style="fill:#FF2E8A;" d="M226,215.2c-1.8,2.3-4.9,3.6-8.6,3.6c-5.8,0-8.8-3.3-8.8-7.7c0-3.7,1.9-6,4.7-6.8
				c-2.4-0.9-3.8-3.3-3.8-6.4c0-4.1,2.8-7.6,8.3-7.6c2.7,0,5.3,0.8,7.1,2.3l-0.5,1.7c-1.9-1.4-4.1-2.2-6.5-2.2
				c-4.5,0-6.7,2.5-6.7,5.9c0,3.5,2,5.5,5.5,5.5h5.4v1.9h-5.5c-3.8,0-6.4,1.8-6.4,5.7c0,3.6,2.3,6,7.2,6c3.3,0,6.1-1.2,7.8-3.3
				L226,215.2z"/>
			<path style="fill:#FF2E8A;" d="M246.1,218.6l-5.3-9.4c-0.7,0.1-1.4,0.2-2.2,0.2h-6.4v9.2h-1.6v-28.2h8c5.6,0,9,3.5,9,9.5
				c0,4.5-1.9,7.6-5.2,8.8l5.6,9.9H246.1z M238.6,207.6c4.8,0,7.3-2.8,7.3-7.6c0-4.9-2.5-7.6-7.3-7.6h-6.4v15.3H238.6z"/>
			<path style="fill:#FF2E8A;" d="M269.4,204.6h1.6v14h-1.5v-2.8c-1.9,2.1-4.4,3-7,3c-5.7,0-11.2-5.1-11.2-14.2
				c0-8.3,4.9-14.3,11.7-14.3c3.2,0,6,1.3,8,3.9l-1,1.4c-1.9-2.4-4.3-3.3-7-3.3c-5.8,0-10.1,5.3-10.1,12.4c0,7.9,4.7,12.4,9.6,12.4
				c2.4,0,4.9-1,6.8-3.4V204.6z"/>
			<path style="fill:#FF2E8A;" d="M295.6,190.4v20.2c0,8.1-3.4,12.2-9,12.2c-3.6,0-6.5-1.6-8.4-4.4l0.8-1.6c1.9,2.8,4.4,4.1,7.6,4.1
				c4.7,0,7.4-3.3,7.4-10.3V206c-1.4,3.7-4.1,5.5-7.5,5.5c-5.4,0-8.7-4-8.7-11.5v-9.5h1.6v9.4c0,6.4,2.7,9.7,7.2,9.7
				c4.6,0,7.4-3.3,7.4-10.4v-8.7H295.6z"/>
		</g>
		<g>
			<path style="fill:#FF2E8A;" d="M64.6,248.6c0,5.9-3.4,9.5-9,9.5h-6.4v9.2h-1.6v-28.2h8C61.2,239.1,64.6,242.6,64.6,248.6z
				 M63,248.6c0-4.9-2.5-7.6-7.3-7.6h-6.4v15.3h6.4C60.4,256.2,63,253.4,63,248.6z"/>
			<path style="fill:#FF2E8A;" d="M85.6,267.3l-5.3-9.4c-0.7,0.1-1.4,0.2-2.2,0.2h-6.4v9.2h-1.6v-28.2h8c5.6,0,9,3.5,9,9.5
				c0,4.5-1.9,7.6-5.2,8.8l5.6,9.9H85.6z M78.1,256.2c4.8,0,7.3-2.8,7.3-7.6c0-4.9-2.5-7.6-7.3-7.6h-6.4v15.3H78.1z"/>
			<path style="fill:#FF2E8A;" d="M96.9,241v24.5h4.7v1.9h-11v-1.9h4.7V241h-4.7v-1.9h11v1.9H96.9z"/>
			<path style="fill:#FF2E8A;" d="M124.7,239.1l-9.9,28.2h-1.6l-9.9-28.2h1.8l9,25.5l9-25.5H124.7z"/>
			<path style="fill:#FF2E8A;" d="M146,251.1v16.1h-1.6v-8.7h-14.9v8.7h-1.6v-16.1c0-8.1,3.6-12.2,9.1-12.2
				C142.5,238.9,146,243,146,251.1z M144.4,256.7v-5.8c0-6.8-2.8-10.1-7.4-10.1s-7.4,3.3-7.4,10.1v5.8H144.4z"/>
			<path style="fill:#FF2E8A;" d="M166.8,243.6c-2.4-1.8-5-2.6-7.5-2.8v26.5h-1.7v-26.5c-2.6,0.1-5.2,1-7.5,2.8l-0.6-1.7
				c2.8-2.1,5.9-3,9-3c3.1,0,6.2,0.9,9,3L166.8,243.6z"/>
			<path style="fill:#FF2E8A;" d="M186.4,263.9c-1.8,2.3-4.9,3.6-8.6,3.6c-5.8,0-8.8-3.3-8.8-7.7c0-3.7,1.9-6,4.7-6.8
				c-2.4-0.9-3.8-3.3-3.8-6.4c0-4.1,2.8-7.6,8.3-7.6c2.7,0,5.3,0.8,7.1,2.3l-0.5,1.7c-1.9-1.4-4.1-2.2-6.5-2.2
				c-4.5,0-6.7,2.5-6.7,5.9c0,3.5,2,5.5,5.5,5.5h5.4v1.9h-5.5c-3.8,0-6.4,1.8-6.4,5.7c0,3.6,2.3,6,7.2,6c3.3,0,6.1-1.2,7.8-3.3
				L186.4,263.9z"/>
			<path style="fill:#FF2E8A;" d="M199.2,239.1h1.6v26.3h12.8v1.9h-14.5V239.1z"/>
			<path style="fill:#FF2E8A;" d="M229.3,243.6c-2.4-1.8-5-2.6-7.5-2.8v26.5h-1.7v-26.5c-2.6,0.1-5.2,1-7.5,2.8l-0.6-1.7
				c2.8-2.1,5.9-3,9-3c3.1,0,6.2,0.9,9,3L229.3,243.6z"/>
			<path style="fill:#FF2E8A;" d="M233.8,239.1h8.8c7.1,0,11.8,5.9,11.8,14.1c0,8.2-4.8,14.1-11.8,14.1h-8.8V239.1z M242.5,265.4
				c6.3,0,10.3-5.1,10.3-12.2s-4-12.2-10.3-12.2h-7.1v24.5H242.5z"/>
		</g>
	</g>
</g>
</svg>
